<?xml version="1.0" encoding="utf-8"?>
<!-- Generator: Adobe Illustrator 28.4.1, SVG Export Plug-In . SVG Version: 6.00 Build 0)  -->
<svg version="1.0" xmlns="http://www.w3.org/2000/svg" xmlns:xlink="http://www.w3.org/1999/xlink" x="0px" y="0px"
	 viewBox="0 0 220.93 127.49" style="enable-background:new 0 0 220.93 127.49;" xml:space="preserve">
<style type="text/css">
	.st0{fill:#FFFFFF;}
	.st1{fill:#010101;}
</style>
<g id="Layer_1">
	<g>
		<rect x="-0.07" y="0.02" class="st0" width="221" height="51.63"/>
		<g>
			<rect x="-0.1" y="51.65" width="221.08" height="75.88"/>
			<g>
				<path class="st0" d="M72.17,78.35c-0.3-0.6-1.09-1.09-1.76-1.09h-1.36c-0.67,0-1.45,0.49-1.74,1.1L56.52,100.9
					c-0.3,0.6,0.03,1.02,0.7,1.02h2.49c0.98,0,1.43-0.45,1.7-1c0.27-0.55,0.86-1.74,0.98-1.98c0.15-0.33,0.63-0.53,1.3-0.53
					l11.61,0.01c0.67,0,1.1,0.13,1.3,0.52c0.13,0.26,0.72,1.33,1.01,1.91c0.29,0.59,0.79,1.06,1.75,1.06h3.62
					c0.67,0,0.96-0.51,0.72-0.98C83.44,100.47,72.17,78.35,72.17,78.35z M65.35,94.93c-0.67,0-0.98-0.5-0.7-1.1l4.25-9.11
					c0.28-0.61,0.74-0.6,1.02,0l4.14,9.11c0.28,0.61-0.04,1.11-0.71,1.11L65.35,94.93z M155.52,78.53c0,0.22,0,21.92,0,22.36
					c0,0.62,0.55,1.04,1.22,1.04h2.95c0.67,0,1.22-0.43,1.22-1.1V78.48c0-0.67-0.43-1.22-1.1-1.22h-3.06
					C156.06,77.27,155.52,77.68,155.52,78.53z M106.12,92.53c-0.38-0.55-0.17-1.15,0.47-1.34c0,0,2.55-0.76,3.77-1.86
					c1.22-1.1,1.83-2.68,1.83-4.74c0-1.35-0.24-2.48-0.71-3.41c-0.47-0.92-1.14-1.67-2.02-2.25c-0.88-0.58-1.92-1-3.15-1.27
					c-1.22-0.26-2.87-0.34-2.87-0.34c-0.67-0.03-1.76-0.06-2.43-0.06H88.77c-0.67,0-1.21,0.55-1.21,1.22v22.34
					c0,0.67,0.55,1.1,1.21,1.1h2.9c0.67,0,1.22-0.43,1.22-1.1c0,0,0-8.89,0.01-8.89c0,0,0.01-0.01,0.01-0.01
					c0-0.01,5.49-0.01,5.49-0.01c0.67,0,1.53,0.45,1.92,0.99l5.7,8.03c0.53,0.71,1.03,0.99,1.7,0.99h3.79
					c0.67,0,0.77-0.63,0.54-0.96C111.81,100.64,106.12,92.53,106.12,92.53z M103.82,87.99c-0.75,0.17-1.59,0.21-1.59,0.21
					c-0.67,0.03-1.76,0.05-2.43,0.05h-5.67c-0.67,0-1.22-0.55-1.22-1.22v-4.53c0-0.67,0.55-1.22,1.22-1.22h5.67
					c0.67,0,1.76,0.02,2.43,0.05c0,0,0.84,0.03,1.59,0.21c0.75,0.17,1.35,0.41,1.78,0.73c0.44,0.31,0.75,0.68,0.94,1.11
					c0.19,0.42,0.28,0.88,0.28,1.39c0,0.5-0.09,0.96-0.28,1.39c-0.19,0.42-0.5,0.79-0.94,1.1
					C105.16,87.58,104.57,87.82,103.82,87.99z M191.71,77.27c-0.67,0-1.21,0.44-1.21,1.08c0,0.31,0.01,14.29,0.01,14.29
					c0,0.67-0.38,0.82-0.84,0.34l-14.31-14.84c-0.46-0.48-1.14-0.87-2.06-0.87h-2.69c-0.85,0-1.22,0.45-1.22,0.91
					c0,0.46,0,22.4,0,22.85c0,0.46,0.43,0.89,1.1,0.89h2.7c0.67,0,1.13-0.36,1.13-0.98c0-0.31,0.01-15.06,0.01-15.06
					c0-0.67,0.38-0.82,0.84-0.34l14.92,15.51c0.47,0.47,1.05,0.86,2.07,0.86h2.02c0.67,0,1.22-0.55,1.22-1.22V78.48
					c0-0.67-0.55-1.22-1.22-1.22H191.71z M133.36,91.2c-0.32,0.58-0.86,0.58-1.18,0l-7-12.85c-0.3-0.6-0.91-1.09-1.76-1.09h-3.79
					c-0.67,0-1.22,0.55-1.22,1.22v22.32c0,0.67,0.44,1.12,1.22,1.12h2.36c0.67,0,1.15-0.42,1.15-1.07c0-0.31,0.01-16.23,0.04-16.23
					c0.03,0,8.73,16.23,8.73,16.23c0.32,0.59,1.09,0.59,1.41,0c0,0,8.78-16.18,8.8-16.18c0.03,0,0.02,15.72,0.02,16.18
					c0,0.64,0.52,1.07,1.19,1.07h2.72c0.67,0,1.21-0.33,1.21-1.22V78.48c0-0.67-0.55-1.22-1.21-1.22h-3.64
					c-0.93,0-1.49,0.47-1.82,1.05L133.36,91.2z"/>
				<path class="st0" d="M25.51,89.57c0,12.04,12.31,12.65,14.78,12.65c8.17,0,11.62-2.21,11.77-2.3c0.51-0.29,1.13-0.87,1.13-1.97
					v-8.31c0-0.77-0.62-1.39-1.39-1.39H41.54c-0.77,0-1.27,0.62-1.27,1.39v0.86c0,0.77,0.5,1.39,1.27,1.39h5.94
					c0.57,0,1.04,0.47,1.04,1.04c0,0-0.01,3.64-0.01,3.87c-1.17,0.48-6.52,2.04-10.81,1.02c-6.23-1.49-6.71-6.63-6.71-8.17
					c0-1.29,0.39-7.76,8.04-8.42c6.19-0.53,10.27,1.97,10.31,1.99c0.73,0.38,1.48,0.11,1.89-0.66c0-0.01,0.77-1.57,0.77-1.57
					c0.32-0.64,0.21-1.31-0.57-1.84c-0.05-0.03-4.39-2.38-11.13-2.38C25.92,76.79,25.51,88.26,25.51,89.57z"/>
				<path class="st0" d="M201.44,96.79c1.55,0,2.81,1.26,2.81,2.81c0,1.55-1.26,2.81-2.81,2.81c-1.55,0-2.81-1.26-2.81-2.81
					C198.62,98.05,199.89,96.79,201.44,96.79z M201.44,101.99c1.29,0,2.27-1.04,2.27-2.39c0-1.35-0.97-2.39-2.27-2.39
					c-1.31,0-2.28,1.04-2.28,2.39C199.16,100.95,200.14,101.99,201.44,101.99z M200.36,97.95h1.26c0.76,0,1.13,0.3,1.13,0.93
					c0,0.53-0.34,0.91-0.85,0.91l0.93,1.46h-0.57l-0.92-1.46h-0.45v1.46h-0.54V97.95z M200.9,99.37h0.64c0.41,0,0.68-0.09,0.68-0.51
					c0-0.37-0.34-0.48-0.68-0.48h-0.64V99.37z"/>
			</g>
		</g>
		<path class="st1" d="M219.44,1.54v124.44H1.42V1.54H219.44 M220.97,0.01H-0.11v127.51h221.08L220.97,0.01L220.97,0.01z"/>
		<g>
			<path d="M55.37,34.73h-2.12l-1.93-10.57l-2.07,10.57h-2.12L44.44,19.4h2.21l1.61,11.32l2.16-11.32h1.98l1.98,11.32l1.68-11.32
				h2.14L55.37,34.73z"/>
			<path d="M68.29,35.07c-2.88,0-4.28-1.89-4.28-4.4v-7.23c0-2.49,1.41-4.37,4.28-4.37c2.9,0,4.28,1.89,4.28,4.37v7.23
				C72.57,33.18,71.18,35.07,68.29,35.07z M70.4,23.26c0-1.31-0.69-2.26-2.12-2.26s-2.1,0.94-2.1,2.26v7.6
				c0,1.31,0.67,2.26,2.1,2.26s2.12-0.94,2.12-2.26V23.26z"/>
			<path d="M87.71,34.89c-1.73,0-2.32-0.48-2.32-2.07v-2.99c0-1.06-0.48-1.77-1.59-1.77h-2.16v6.68h-2.19V19.4h4.45
				c2.48,0,3.59,1.24,3.59,3.43v1.68c0,1.5-0.51,2.39-1.98,2.69c1.45,0.23,2.05,1.45,2.05,2.67v2.79c0,0.41,0.18,0.6,0.64,0.6v1.64
				H87.71z M85.3,22.78c0-0.87-0.37-1.5-1.4-1.5h-2.26v5.11h2.03c1.06,0,1.63-0.6,1.63-1.75V22.78z"/>
			<path d="M100.72,34.73l-2.9-6.84l-1.22,2.1v4.74h-2.16V19.4h2.16v7.46l4.17-7.46h2.33l-3.87,6.58l3.87,8.75H100.72z"/>
			<path d="M112.62,35.07c-2.53,0-4.21-1.66-4.21-3.89v-1.06h2.16v0.71c0,1.57,0.71,2.37,2.07,2.37c1.33,0,2.03-0.8,2.03-1.98
				c0-1.36-0.6-2.21-2.53-3.43c-1.73-1.1-3.55-2.6-3.55-4.81c0-2.19,1.45-3.91,4.05-3.91c2.48,0,4.07,1.63,4.07,3.89v0.99h-2.07
				v-0.71c0-1.29-0.62-2.3-2.07-2.3c-1.2,0-1.82,0.71-1.82,1.75c0,1.36,0.62,2.07,2.83,3.5c2.23,1.45,3.24,2.74,3.24,4.72
				C116.83,33.44,115.04,35.07,112.62,35.07z"/>
			<path d="M141.74,34.73h-2.12l-1.93-10.57l-2.07,10.57h-2.12l-2.69-15.33h2.21l1.61,11.32l2.16-11.32h1.98l1.98,11.32l1.68-11.32
				h2.14L141.74,34.73z"/>
			<path d="M150.6,34.73V19.4h2.19v15.33H150.6z"/>
			<path d="M164.25,21.4v13.33h-2.19V21.4h-3.15v-2h8.47v2H164.25z"/>
			<path d="M180.07,34.73V28h-4.35v6.72h-2.19V19.4h2.19v6.65h4.35V19.4h2.16v15.33H180.07z"/>
		</g>
	</g>
</g>
<g id="Layer_2">
</g>
</svg>
